<svg width="60" height="60" viewBox="0 0 60 60" fill="none" xmlns="http://www.w3.org/2000/svg">
<circle cx="30" cy="30" r="29.5" fill="white" stroke="#2874F0"/>
<g clip-path="url(#clip0_2038_254)">
<path d="M41.9688 13.1099H38.0625V17.4023H41.9688V13.1099Z" stroke="#2874F0" stroke-width="1.75781" stroke-miterlimit="10" stroke-linecap="round" stroke-linejoin="round"/>
<path d="M44.7582 21.0396V18.5742C44.7582 17.927 44.2335 17.4023 43.5863 17.4023H36.4451C35.7979 17.4023 35.2732 17.927 35.2732 18.5742V21.0396H44.7582Z" stroke="#2874F0" stroke-width="1.75781" stroke-miterlimit="10" stroke-linecap="round" stroke-linejoin="round"/>
<path d="M43.5862 37.5H35.2048C35.2248 37.6574 35.2362 37.8175 35.2362 37.9803C35.2362 38.4467 35.1512 38.8931 34.9967 39.3055C36.1937 39.9399 37.0095 41.198 37.0095 42.6471C37.0095 42.7499 37.005 42.8516 36.9969 42.9523H43.5862C44.2333 42.9523 44.758 42.4276 44.758 41.7804V38.6719C44.7581 38.0247 44.2334 37.5 43.5862 37.5Z" stroke="#2874F0" stroke-width="1.75781" stroke-miterlimit="10" stroke-linecap="round" stroke-linejoin="round"/>
<path d="M39.6969 47.6406H46.9641C47.6113 47.6406 48.136 47.116 48.136 46.4688V23.9524C48.136 22.3437 46.8319 21.0396 45.2233 21.0396H34.8081C33.1994 21.0396 31.8954 22.3437 31.8954 23.9524V27.4999" stroke="#2874F0" stroke-width="1.75781" stroke-miterlimit="10" stroke-linecap="round" stroke-linejoin="round"/>
<path d="M31.8954 30.2344V34.2264" stroke="#2874F0" stroke-width="1.75781" stroke-miterlimit="10" stroke-linecap="round" stroke-linejoin="round"/>
<path d="M23.4325 36.0776L30.2058 42.851C30.5868 43.2319 30.5916 43.8512 30.2119 44.2332C30.0851 44.3609 29.9491 44.4738 29.8067 44.5736H36.285C36.3497 44.5736 36.414 44.5756 36.4778 44.5791C36.815 44.0136 37.0098 43.3534 37.0098 42.6471C37.0098 41.198 36.194 39.94 34.9969 39.3056C35.1514 38.8931 35.2364 38.4468 35.2364 37.9804C35.2364 35.8926 33.544 34.2002 31.4562 34.2002C30.3227 34.2002 29.3065 34.6998 28.6136 35.49C27.939 34.8637 27.0358 34.4802 26.0427 34.4802C24.8833 34.4802 23.8474 35.0034 23.1541 35.825C23.2503 35.9044 23.3434 35.9886 23.4325 36.0776Z" stroke="#2874F0" stroke-width="1.75781" stroke-miterlimit="10" stroke-linecap="round" stroke-linejoin="round"/>
<path d="M20.9184 45.5853L23.6398 48.3067C24.3489 49.0158 25.3105 49.4141 26.3132 49.4141H38.5325C39.1257 49.4141 39.6335 48.9717 39.6963 48.3818C39.916 46.3178 38.304 44.5738 36.2848 44.5738H29.8065C29.9489 44.4739 30.0849 44.361 30.2117 44.2334C30.5915 43.8513 30.5866 43.232 30.2057 42.8511L23.4323 36.0777C22.6997 35.3452 21.7062 34.9336 20.6702 34.9336H12.6453C12.2138 34.9336 11.864 35.2834 11.864 35.7148V40.7102C11.864 41.1417 12.2138 41.4915 12.6453 41.4915H15.9035C16.4932 41.4915 17.0587 41.7257 17.4757 42.1427L18.9849 43.6519" stroke="#2874F0" stroke-width="1.75781" stroke-miterlimit="10" stroke-linecap="round" stroke-linejoin="round"/>
<path d="M24.39 37.0352L30.2057 42.8509C30.5891 43.2342 30.5891 43.8559 30.2057 44.2392C29.041 45.404 27.1526 45.404 25.9879 44.2392L23.0107 41.2621" stroke="#2874F0" stroke-width="1.75781" stroke-miterlimit="10" stroke-linecap="round" stroke-linejoin="round"/>
<path d="M27.1106 24.5568L28.8851 27.3612C29.9344 29.0195 28.7429 31.1834 26.7805 31.1834C24.8182 31.1834 23.6267 29.0195 24.6759 27.3612L26.4505 24.5568C26.6037 24.3144 26.9573 24.3144 27.1106 24.5568Z" stroke="#2874F0" stroke-width="1.75781" stroke-miterlimit="10" stroke-linecap="round" stroke-linejoin="round"/>
<path d="M36.1482 28.5425H38.1282C38.2576 28.5425 38.3626 28.4376 38.3626 28.3081V26.3281C38.3626 26.1124 38.5375 25.9375 38.7532 25.9375H41.2783C41.494 25.9375 41.6689 26.1124 41.6689 26.3281V28.3081C41.6689 28.4376 41.7738 28.5425 41.9033 28.5425H43.8833C44.099 28.5425 44.2739 28.7174 44.2739 28.9331V31.4582C44.2739 31.6739 44.099 31.8488 43.8833 31.8488H41.9032C41.7737 31.8488 41.6688 31.9538 41.6688 32.0832V34.0632C41.6688 34.2789 41.4939 34.4538 41.2782 34.4538H38.7532C38.5375 34.4538 38.3626 34.2789 38.3626 34.0632V32.0832C38.3626 31.9538 38.2576 31.8488 38.1282 31.8488H36.1482C35.9325 31.8488 35.7576 31.6739 35.7576 31.4582V28.9331C35.7576 28.7173 35.9325 28.5425 36.1482 28.5425Z" stroke="#2874F0" stroke-width="1.75781" stroke-miterlimit="10" stroke-linecap="round" stroke-linejoin="round"/>
<path d="M22.6057 19.4531V23.2799" stroke="#2874F0" stroke-width="1.75781" stroke-miterlimit="10" stroke-linecap="round" stroke-linejoin="round"/>
<path d="M24.5191 21.3667H20.6923" stroke="#2874F0" stroke-width="1.75781" stroke-miterlimit="10" stroke-linecap="round" stroke-linejoin="round"/>
<path d="M26.2385 14.5327V16.8751" stroke="#2874F0" stroke-width="1.75781" stroke-miterlimit="10" stroke-linecap="round" stroke-linejoin="round"/>
<path d="M27.4097 15.7041H25.0673" stroke="#2874F0" stroke-width="1.75781" stroke-miterlimit="10" stroke-linecap="round" stroke-linejoin="round"/>
<path d="M36.7187 13.11H44.406C44.6004 13.11 44.7581 12.9523 44.7581 12.7579V10.938C44.7581 10.7436 44.6004 10.5859 44.406 10.5859H32.5871C31.2238 10.5859 30.1187 11.6911 30.1187 13.0544V15.7026C30.1187 15.897 30.2763 16.0547 30.4708 16.0547H32.2906C32.4851 16.0547 32.6427 15.897 32.6427 15.7026V13.4621C32.6427 13.2677 32.8004 13.11 32.9948 13.11H33.9844" stroke="#2874F0" stroke-width="1.75781" stroke-miterlimit="10" stroke-linecap="round" stroke-linejoin="round"/>
</g>
<defs>
<clipPath id="clip0_2038_254">
<rect width="40" height="40" fill="white" transform="translate(10 10)"/>
</clipPath>
</defs>
</svg>
